<?xml version="1.0" encoding="UTF-8"?> <!-- Generator: Adobe Illustrator 24.2.3, SVG Export Plug-In . SVG Version: 6.00 Build 0) --> <svg xmlns="http://www.w3.org/2000/svg" xmlns:xlink="http://www.w3.org/1999/xlink" version="1.1" id="Layer_2" x="0px" y="0px" viewBox="0 0 295 148.8" style="enable-background:new 0 0 295 148.8;" xml:space="preserve"> <style type="text/css"> .st0{fill:#1B60AB;} .st1{fill:#FF0001;} .st2{fill:#FFE501;} </style> <g> <path class="st0" d="M59.1,35.3c0-6.5-5.9-10.7-13.5-10.7c-7.6,0-22.4,0-22.4,0L12.6,79h19.1c14.4,0,25.4-5.4,25.8-16.1 c0.4-11.1-12.5-13.3-12.5-13.3C54.5,47.4,59.1,41.8,59.1,35.3z M32.1,72.1h-3.6l3.4-17.9c0,0,3.3,0,5.3,0c2,0,6.1,1.5,6.1,7.6 C43.3,68,37.8,72.1,32.1,72.1z M37.7,47h-4.3l2.5-15.2c0,0,1.3,0,4,0c2.7,0,6.2,1.1,6.2,5.9C46.1,42.5,42.8,47,37.7,47z"></path> <path class="st0" d="M95.9,52.3c-3.1,16.6-7.3,17.3-11.4,17.3c-4.1,0-8.3-1.9-6.1-14c2.2-12.1,6.1-31,6.1-31H70.1 c0,0-4.5,23.1-6.2,34c-1.7,10.9,1.8,21.4,16.5,21.4c14.7,0,23.1-6.3,26.4-23.4c3.3-17.1,6-32,6-32h-12 C100.8,24.6,99,35.7,95.9,52.3z"></path> <path class="st0" d="M145.7,34.1c5.7,0,9.1,1.5,9.1,1.5l4.3-7.5c-5.8-3.8-17.9-6.9-30.6-0.3c-12.7,6.6-18.9,22.6-14,35.8 c4.9,13.1,16.5,16.5,25.2,16.5c8.7,0,15.4-2.6,15.4-2.6l4-22.6H145c0,0-2.5,12.7-2.7,14.3c-0.2,1.5-3.7,2.5-8.7-1.5 c-5-4.1-8.1-14.7-4.5-23C132.8,36.3,140.1,34.1,145.7,34.1z"></path> <polygon class="st0" points="172.4,24.6 162.4,79 176.4,79 186.7,24.6 "></polygon> <path class="st0" d="M210.6,24.6L180.4,79H192l7.3-13.1h15.6l1.1,13.1h14.2l-8.7-54.4H210.6z M203.1,57.9l8.9-20h0.9l1.3,20H203.1z "></path> <path class="st0" d="M285.6,36.7c-4.2-9.5-12.9-12.1-22.2-12.1c-9.3,0-18.1,0-18.1,0L235.3,79c14.5,0,26.1,1.6,39.1-6.1 C287.4,65.1,289.8,46.2,285.6,36.7z M262.9,68.1c-4.9,2.9-9.2,2.5-11.8,2.5l6.8-37.5c0,0,0.9,0,4.7,0c3.8,0,10.4,3,10.4,14.3 C273,58.7,267.7,65.2,262.9,68.1z"></path> </g> <g> <g> <path class="st0" d="M145.5,103c-0.7,1.4-1.4,3-1.9,4.3h-0.1c-0.1-1.3-0.4-2.9-0.7-4.3l-2-9.9H138l-3.8,17.2h2.1l2-9.3 c0.3-1.6,0.8-4.2,1.1-5.8h0.1c0.2,1.8,0.5,3.8,0.9,5.8l1.8,9.3h1.7l5-9.5c0.9-1.8,1.8-3.8,2.6-5.5h0.1c-0.2,1.7-0.5,4.2-0.7,5.8 l-0.8,9.3h2.2l1.4-17.2h-3L145.5,103z M63.9,94.8c1.7,0,2.9,0.3,3.9,0.7l0.7-1.8c-0.6-0.3-2.1-0.8-4.4-0.8c-2.9,0-5.5,0.9-7.4,2.6 c-2.2,2-3.3,5-3.1,7.9c0.1,1.7,0.6,3.6,2.1,5c1.5,1.5,3.5,2.1,6.1,2.1c2.1,0,4.1-0.5,5.1-0.9l1.2-8.3h-5.9l-0.3,1.7h3.7l-0.8,5.1 c-0.6,0.3-1.7,0.5-2.7,0.5c-4.1,0-5.9-2.2-6.1-5.5c-0.1-2.3,0.8-4.8,2.4-6.3C59.8,95.5,61.7,94.8,63.9,94.8z M82.8,110.3h9.7 l0.3-1.8h-7.5l0.9-6.3h6.6l0.3-1.8h-6.6l0.8-5.5h7.1l0.3-1.8h-9.3L82.8,110.3z M237.2,93.1l-3.7,5.5c-0.8,1.3-1.4,2.2-1.8,3h-0.1 c-0.2-0.7-0.4-1.4-0.9-2.9l-2.1-5.6h-2.4l4.1,10.1l-1.1,7.2h2.2l1.1-7.2l7.3-10H237.2z M208.3,102.3c-0.4,2.4-0.5,3.8-0.5,5.4 l-0.1,0c-0.5-1.5-0.9-2.8-1.9-4.8l-4.7-9.8h-2.5l-2.6,17.2h2.1l1.3-9c0.3-2.3,0.5-4.1,0.7-5.7l0.1,0c0.5,1.6,1,2.8,1.9,5l4.7,9.7 h2.2l2.6-17.2h-2.1L208.3,102.3z"></path> </g> </g> <path class="st0" d="M177.9,93.1h-2.7l-8.5,17.2h2.4l2.6-5.4h6.3l1,5.4h2.3L177.9,93.1z M172.5,103.2l2.4-5c0.5-1,0.9-2.1,1.3-3.1 h0.1c0.1,1,0.3,2.3,0.5,3.2l1,5H172.5z"></path> <path class="st0" d="M116.4,102.1L116.4,102.1c2.3-0.7,4.2-2.5,4.1-5c-0.1-1.2-0.6-2.2-1.5-2.8c-1-0.8-2.6-1.3-4.4-1.3 c-1.4,0-2.9,0.1-4,0.4l-2.6,17h2.3l1.1-7.5h2c1.8,0,2.8,1,3,3.3c0.2,2,0.5,3.8,0.7,4.2h2.3c-0.3-0.7-0.5-2.4-0.8-4.8 C118.3,103.8,117.7,102.5,116.4,102.1z M113.6,101.2h-2l0.9-6.3c0.4-0.1,1-0.2,1.9-0.2c2.1,0,3.6,0.8,3.7,2.7 C118.2,99.4,116.5,101.2,113.6,101.2z"></path> <path d="M42.2,121.9c0,0,7.3,2.1,10.3,2.4c20.8-2.3,169.1-6.7,199.8-5.9c6-0.3,13.8-2.2,14.8-1.9c-3.3-1.3-17.6-2.3-30.4-2 c-12.7,0.3-146,3-165.4,4.7C51.9,120.9,42.2,121.9,42.2,121.9z"></path> <path class="st1" d="M36.2,126.3c0,0,6.3,1.3,9.3,1.7c26.2-3.5,165.6-7.3,193.2-6c6-0.3,8.7-1.7,9.7-1.4c-3.3-1.3-5.9-1.9-18.7-2.3 c-16.8-0.6-146,3-165.4,4.7C44.9,124.6,36.2,126.3,36.2,126.3z"></path> <path class="st2" d="M36.2,129.7c0,0,8.3,2,11.3,2.3c26.2-3.5,163.4-7.3,191-6c6-0.3,14.2-1.8,15.2-1.5c-3.3-1.3-11.3-2.5-24-2.9 c-16.8-0.6-146,3-165.4,4.7C44.9,127.9,36.2,129.7,36.2,129.7z"></path> </svg> 